M48
; DRILL file KiCad 10.0.5 date 2026-08-15T17:01:47
; FORMAT={-:-/ absolute / metric / decimal}
; #@! TF.CreationDate,2026-08-15T17:01:47-04:00
; #@! TF.GenerationSoftware,Kicad,Pcbnew,10.0.5
; #@! TF.FileFunction,Plated,1,2,PTH
FMAT,2
METRIC
; #@! TA.AperFunction,Plated,PTH,ViaDrill
T1C0.300
; #@! TA.AperFunction,Plated,PTH,ComponentDrill
T2C0.800
; #@! TA.AperFunction,Plated,PTH,ComponentDrill
T3C1.000
; #@! TA.AperFunction,Plated,PTH,ComponentDrill
T4C1.100
; #@! TA.AperFunction,Plated,PTH,ComponentDrill
T5C1.300
%
G90
G05
T1
X84.0Y-74.5
X84.0Y-77.0
X88.5Y-70.0
X88.5Y-73.0
X88.5Y-80.5
X88.5Y-83.5
X125.0Y-88.5
X125.0Y-90.117
T2
X79.5Y-113.42
X79.5Y-123.58
X87.0Y-113.42
X87.0Y-123.58
X101.0Y-53.5
X101.69Y-118.5
X106.0Y-53.5
X109.31Y-118.5
X127.0Y-90.617
X129.0Y-90.617
T3
X81.5Y-78.96
X81.5Y-81.5
X81.5Y-84.04
X90.6Y-58.18
X90.6Y-60.72
X90.6Y-63.26
X90.6Y-65.8
X90.6Y-68.34
X90.6Y-70.88
X90.6Y-73.42
X90.6Y-75.96
X90.6Y-78.5
X90.6Y-81.04
X90.6Y-83.58
X90.6Y-86.12
X90.6Y-88.66
X90.6Y-91.2
X90.6Y-93.74
X90.6Y-96.28
X90.6Y-98.82
X90.6Y-101.36
X90.6Y-103.9
X116.0Y-58.18
X116.0Y-60.72
X116.0Y-63.26
X116.0Y-65.8
X116.0Y-68.34
X116.0Y-70.88
X116.0Y-73.42
X116.0Y-75.96
X116.0Y-78.5
X116.0Y-81.04
X116.0Y-83.58
X116.0Y-86.12
X116.0Y-88.66
X116.0Y-91.2
X116.0Y-93.74
X116.0Y-96.28
X116.0Y-98.82
X116.0Y-101.36
X116.0Y-103.9
T4
X96.95Y-115.96
X96.95Y-118.5
X96.95Y-121.04
T5
X114.0Y-118.0
X119.0Y-118.0
X125.0Y-77.617
X130.0Y-77.617
M30
