%TF.GenerationSoftware,KiCad,Pcbnew,10.0.5*%
%TF.CreationDate,2026-08-15T17:00:49-04:00*%
%TF.ProjectId,Plant Waterer,506c616e-7420-4576-9174-657265722e6b,rev?*%
%TF.SameCoordinates,Original*%
%TF.FileFunction,Legend,Bot*%
%TF.FilePolarity,Positive*%
%FSLAX46Y46*%
G04 Gerber Fmt 4.6, Leading zero omitted, Abs format (unit mm)*
G04 Created by KiCad (PCBNEW 10.0.5) date 2026-08-15 17:00:49*
%MOMM*%
%LPD*%
G01*
G04 APERTURE LIST*
G04 Aperture macros list*
%AMRoundRect*
0 Rectangle with rounded corners*
0 $1 Rounding radius*
0 $2 $3 $4 $5 $6 $7 $8 $9 X,Y pos of 4 corners*
0 Add a 4 corners polygon primitive as box body*
4,1,4,$2,$3,$4,$5,$6,$7,$8,$9,$2,$3,0*
0 Add four circle primitives for the rounded corners*
1,1,$1+$1,$2,$3*
1,1,$1+$1,$4,$5*
1,1,$1+$1,$6,$7*
1,1,$1+$1,$8,$9*
0 Add four rect primitives between the rounded corners*
20,1,$1+$1,$2,$3,$4,$5,0*
20,1,$1+$1,$4,$5,$6,$7,0*
20,1,$1+$1,$6,$7,$8,$9,0*
20,1,$1+$1,$8,$9,$2,$3,0*%
G04 Aperture macros list end*
%ADD10RoundRect,0.249999X-1.250001X-1.250001X1.250001X-1.250001X1.250001X1.250001X-1.250001X1.250001X0*%
%ADD11C,3.000000*%
%ADD12RoundRect,0.250000X0.550000X0.550000X-0.550000X0.550000X-0.550000X-0.550000X0.550000X-0.550000X0*%
%ADD13C,1.600000*%
%ADD14R,1.700000X1.700000*%
%ADD15C,1.700000*%
%ADD16RoundRect,0.250000X-0.550000X-0.550000X0.550000X-0.550000X0.550000X0.550000X-0.550000X0.550000X0*%
%ADD17R,2.000000X1.905000*%
%ADD18O,2.000000X1.905000*%
G04 APERTURE END LIST*
%LPC*%
D10*
%TO.C,J5*%
X125000000Y-77617500D03*
D11*
X130000000Y-77617500D03*
%TD*%
D12*
%TO.C,D1*%
X109310000Y-118500000D03*
D13*
X101690000Y-118500000D03*
%TD*%
D14*
%TO.C,J2*%
X116000000Y-58180000D03*
D15*
X116000000Y-60720000D03*
X116000000Y-63260000D03*
X116000000Y-65800000D03*
X116000000Y-68340000D03*
X116000000Y-70880000D03*
X116000000Y-73420000D03*
X116000000Y-75960000D03*
X116000000Y-78500000D03*
X116000000Y-81040000D03*
X116000000Y-83580000D03*
X116000000Y-86120000D03*
X116000000Y-88660000D03*
X116000000Y-91200000D03*
X116000000Y-93740000D03*
X116000000Y-96280000D03*
X116000000Y-98820000D03*
X116000000Y-101360000D03*
X116000000Y-103900000D03*
%TD*%
D14*
%TO.C,J1*%
X90600000Y-58180000D03*
D15*
X90600000Y-60720000D03*
X90600000Y-63260000D03*
X90600000Y-65800000D03*
X90600000Y-68340000D03*
X90600000Y-70880000D03*
X90600000Y-73420000D03*
X90600000Y-75960000D03*
X90600000Y-78500000D03*
X90600000Y-81040000D03*
X90600000Y-83580000D03*
X90600000Y-86120000D03*
X90600000Y-88660000D03*
X90600000Y-91200000D03*
X90600000Y-93740000D03*
X90600000Y-96280000D03*
X90600000Y-98820000D03*
X90600000Y-101360000D03*
X90600000Y-103900000D03*
%TD*%
D16*
%TO.C,C1*%
X127000000Y-90617500D03*
D13*
X129000000Y-90617500D03*
%TD*%
%TO.C,R2*%
X79500000Y-123580000D03*
X79500000Y-113420000D03*
%TD*%
D14*
%TO.C,J3*%
X81500000Y-78960000D03*
D15*
X81500000Y-81500000D03*
X81500000Y-84040000D03*
%TD*%
D13*
%TO.C,R1*%
X87000000Y-113420000D03*
X87000000Y-123580000D03*
%TD*%
D17*
%TO.C,Q1*%
X96950000Y-121040000D03*
D18*
X96950000Y-118500000D03*
X96950000Y-115960000D03*
%TD*%
D10*
%TO.C,J4*%
X114000000Y-118000000D03*
D11*
X119000000Y-118000000D03*
%TD*%
D13*
%TO.C,C2*%
X106000000Y-53500000D03*
X101000000Y-53500000D03*
%TD*%
%LPD*%
M02*
