%TF.GenerationSoftware,KiCad,Pcbnew,10.0.5*%
%TF.CreationDate,2026-08-15T17:00:49-04:00*%
%TF.ProjectId,Plant Waterer,506c616e-7420-4576-9174-657265722e6b,rev?*%
%TF.SameCoordinates,Original*%
%TF.FileFunction,Legend,Top*%
%TF.FilePolarity,Positive*%
%FSLAX46Y46*%
G04 Gerber Fmt 4.6, Leading zero omitted, Abs format (unit mm)*
G04 Created by KiCad (PCBNEW 10.0.5) date 2026-08-15 17:00:49*
%MOMM*%
%LPD*%
G01*
G04 APERTURE LIST*
G04 Aperture macros list*
%AMRoundRect*
0 Rectangle with rounded corners*
0 $1 Rounding radius*
0 $2 $3 $4 $5 $6 $7 $8 $9 X,Y pos of 4 corners*
0 Add a 4 corners polygon primitive as box body*
4,1,4,$2,$3,$4,$5,$6,$7,$8,$9,$2,$3,0*
0 Add four circle primitives for the rounded corners*
1,1,$1+$1,$2,$3*
1,1,$1+$1,$4,$5*
1,1,$1+$1,$6,$7*
1,1,$1+$1,$8,$9*
0 Add four rect primitives between the rounded corners*
20,1,$1+$1,$2,$3,$4,$5,0*
20,1,$1+$1,$4,$5,$6,$7,0*
20,1,$1+$1,$6,$7,$8,$9,0*
20,1,$1+$1,$8,$9,$2,$3,0*%
G04 Aperture macros list end*
%ADD10C,0.150000*%
%ADD11C,0.120000*%
%ADD12RoundRect,0.249999X-1.250001X-1.250001X1.250001X-1.250001X1.250001X1.250001X-1.250001X1.250001X0*%
%ADD13C,3.000000*%
%ADD14RoundRect,0.250000X0.550000X0.550000X-0.550000X0.550000X-0.550000X-0.550000X0.550000X-0.550000X0*%
%ADD15C,1.600000*%
%ADD16R,1.700000X1.700000*%
%ADD17C,1.700000*%
%ADD18RoundRect,0.250000X-0.550000X-0.550000X0.550000X-0.550000X0.550000X0.550000X-0.550000X0.550000X0*%
%ADD19R,2.000000X1.905000*%
%ADD20O,2.000000X1.905000*%
G04 APERTURE END LIST*
D10*
X127166666Y-69952319D02*
X127166666Y-70666604D01*
X127166666Y-70666604D02*
X127119047Y-70809461D01*
X127119047Y-70809461D02*
X127023809Y-70904700D01*
X127023809Y-70904700D02*
X126880952Y-70952319D01*
X126880952Y-70952319D02*
X126785714Y-70952319D01*
X128119047Y-69952319D02*
X127642857Y-69952319D01*
X127642857Y-69952319D02*
X127595238Y-70428509D01*
X127595238Y-70428509D02*
X127642857Y-70380890D01*
X127642857Y-70380890D02*
X127738095Y-70333271D01*
X127738095Y-70333271D02*
X127976190Y-70333271D01*
X127976190Y-70333271D02*
X128071428Y-70380890D01*
X128071428Y-70380890D02*
X128119047Y-70428509D01*
X128119047Y-70428509D02*
X128166666Y-70523747D01*
X128166666Y-70523747D02*
X128166666Y-70761842D01*
X128166666Y-70761842D02*
X128119047Y-70857080D01*
X128119047Y-70857080D02*
X128071428Y-70904700D01*
X128071428Y-70904700D02*
X127976190Y-70952319D01*
X127976190Y-70952319D02*
X127738095Y-70952319D01*
X127738095Y-70952319D02*
X127642857Y-70904700D01*
X127642857Y-70904700D02*
X127595238Y-70857080D01*
X104761905Y-121074819D02*
X104761905Y-120074819D01*
X104761905Y-120074819D02*
X105000000Y-120074819D01*
X105000000Y-120074819D02*
X105142857Y-120122438D01*
X105142857Y-120122438D02*
X105238095Y-120217676D01*
X105238095Y-120217676D02*
X105285714Y-120312914D01*
X105285714Y-120312914D02*
X105333333Y-120503390D01*
X105333333Y-120503390D02*
X105333333Y-120646247D01*
X105333333Y-120646247D02*
X105285714Y-120836723D01*
X105285714Y-120836723D02*
X105238095Y-120931961D01*
X105238095Y-120931961D02*
X105142857Y-121027200D01*
X105142857Y-121027200D02*
X105000000Y-121074819D01*
X105000000Y-121074819D02*
X104761905Y-121074819D01*
X106285714Y-121074819D02*
X105714286Y-121074819D01*
X106000000Y-121074819D02*
X106000000Y-120074819D01*
X106000000Y-120074819D02*
X105904762Y-120217676D01*
X105904762Y-120217676D02*
X105809524Y-120312914D01*
X105809524Y-120312914D02*
X105714286Y-120360533D01*
X109048095Y-120754819D02*
X109048095Y-119754819D01*
X109619523Y-120754819D02*
X109190952Y-120183390D01*
X109619523Y-119754819D02*
X109048095Y-120326247D01*
X115666666Y-54864819D02*
X115666666Y-55579104D01*
X115666666Y-55579104D02*
X115619047Y-55721961D01*
X115619047Y-55721961D02*
X115523809Y-55817200D01*
X115523809Y-55817200D02*
X115380952Y-55864819D01*
X115380952Y-55864819D02*
X115285714Y-55864819D01*
X116095238Y-54960057D02*
X116142857Y-54912438D01*
X116142857Y-54912438D02*
X116238095Y-54864819D01*
X116238095Y-54864819D02*
X116476190Y-54864819D01*
X116476190Y-54864819D02*
X116571428Y-54912438D01*
X116571428Y-54912438D02*
X116619047Y-54960057D01*
X116619047Y-54960057D02*
X116666666Y-55055295D01*
X116666666Y-55055295D02*
X116666666Y-55150533D01*
X116666666Y-55150533D02*
X116619047Y-55293390D01*
X116619047Y-55293390D02*
X116047619Y-55864819D01*
X116047619Y-55864819D02*
X116666666Y-55864819D01*
X90266666Y-54864819D02*
X90266666Y-55579104D01*
X90266666Y-55579104D02*
X90219047Y-55721961D01*
X90219047Y-55721961D02*
X90123809Y-55817200D01*
X90123809Y-55817200D02*
X89980952Y-55864819D01*
X89980952Y-55864819D02*
X89885714Y-55864819D01*
X91266666Y-55864819D02*
X90695238Y-55864819D01*
X90980952Y-55864819D02*
X90980952Y-54864819D01*
X90980952Y-54864819D02*
X90885714Y-55007676D01*
X90885714Y-55007676D02*
X90790476Y-55102914D01*
X90790476Y-55102914D02*
X90695238Y-55150533D01*
X127788445Y-87594580D02*
X127740826Y-87642200D01*
X127740826Y-87642200D02*
X127597969Y-87689819D01*
X127597969Y-87689819D02*
X127502731Y-87689819D01*
X127502731Y-87689819D02*
X127359874Y-87642200D01*
X127359874Y-87642200D02*
X127264636Y-87546961D01*
X127264636Y-87546961D02*
X127217017Y-87451723D01*
X127217017Y-87451723D02*
X127169398Y-87261247D01*
X127169398Y-87261247D02*
X127169398Y-87118390D01*
X127169398Y-87118390D02*
X127217017Y-86927914D01*
X127217017Y-86927914D02*
X127264636Y-86832676D01*
X127264636Y-86832676D02*
X127359874Y-86737438D01*
X127359874Y-86737438D02*
X127502731Y-86689819D01*
X127502731Y-86689819D02*
X127597969Y-86689819D01*
X127597969Y-86689819D02*
X127740826Y-86737438D01*
X127740826Y-86737438D02*
X127788445Y-86785057D01*
X128740826Y-87689819D02*
X128169398Y-87689819D01*
X128455112Y-87689819D02*
X128455112Y-86689819D01*
X128455112Y-86689819D02*
X128359874Y-86832676D01*
X128359874Y-86832676D02*
X128264636Y-86927914D01*
X128264636Y-86927914D02*
X128169398Y-86975533D01*
X77454819Y-117666666D02*
X76978628Y-117999999D01*
X77454819Y-118238094D02*
X76454819Y-118238094D01*
X76454819Y-118238094D02*
X76454819Y-117857142D01*
X76454819Y-117857142D02*
X76502438Y-117761904D01*
X76502438Y-117761904D02*
X76550057Y-117714285D01*
X76550057Y-117714285D02*
X76645295Y-117666666D01*
X76645295Y-117666666D02*
X76788152Y-117666666D01*
X76788152Y-117666666D02*
X76883390Y-117714285D01*
X76883390Y-117714285D02*
X76931009Y-117761904D01*
X76931009Y-117761904D02*
X76978628Y-117857142D01*
X76978628Y-117857142D02*
X76978628Y-118238094D01*
X76550057Y-117285713D02*
X76502438Y-117238094D01*
X76502438Y-117238094D02*
X76454819Y-117142856D01*
X76454819Y-117142856D02*
X76454819Y-116904761D01*
X76454819Y-116904761D02*
X76502438Y-116809523D01*
X76502438Y-116809523D02*
X76550057Y-116761904D01*
X76550057Y-116761904D02*
X76645295Y-116714285D01*
X76645295Y-116714285D02*
X76740533Y-116714285D01*
X76740533Y-116714285D02*
X76883390Y-116761904D01*
X76883390Y-116761904D02*
X77454819Y-117333332D01*
X77454819Y-117333332D02*
X77454819Y-116714285D01*
X81166666Y-76034819D02*
X81166666Y-76749104D01*
X81166666Y-76749104D02*
X81119047Y-76891961D01*
X81119047Y-76891961D02*
X81023809Y-76987200D01*
X81023809Y-76987200D02*
X80880952Y-77034819D01*
X80880952Y-77034819D02*
X80785714Y-77034819D01*
X81547619Y-76034819D02*
X82166666Y-76034819D01*
X82166666Y-76034819D02*
X81833333Y-76415771D01*
X81833333Y-76415771D02*
X81976190Y-76415771D01*
X81976190Y-76415771D02*
X82071428Y-76463390D01*
X82071428Y-76463390D02*
X82119047Y-76511009D01*
X82119047Y-76511009D02*
X82166666Y-76606247D01*
X82166666Y-76606247D02*
X82166666Y-76844342D01*
X82166666Y-76844342D02*
X82119047Y-76939580D01*
X82119047Y-76939580D02*
X82071428Y-76987200D01*
X82071428Y-76987200D02*
X81976190Y-77034819D01*
X81976190Y-77034819D02*
X81690476Y-77034819D01*
X81690476Y-77034819D02*
X81595238Y-76987200D01*
X81595238Y-76987200D02*
X81547619Y-76939580D01*
X89954819Y-120166666D02*
X89478628Y-120499999D01*
X89954819Y-120738094D02*
X88954819Y-120738094D01*
X88954819Y-120738094D02*
X88954819Y-120357142D01*
X88954819Y-120357142D02*
X89002438Y-120261904D01*
X89002438Y-120261904D02*
X89050057Y-120214285D01*
X89050057Y-120214285D02*
X89145295Y-120166666D01*
X89145295Y-120166666D02*
X89288152Y-120166666D01*
X89288152Y-120166666D02*
X89383390Y-120214285D01*
X89383390Y-120214285D02*
X89431009Y-120261904D01*
X89431009Y-120261904D02*
X89478628Y-120357142D01*
X89478628Y-120357142D02*
X89478628Y-120738094D01*
X89954819Y-119214285D02*
X89954819Y-119785713D01*
X89954819Y-119499999D02*
X88954819Y-119499999D01*
X88954819Y-119499999D02*
X89097676Y-119595237D01*
X89097676Y-119595237D02*
X89192914Y-119690475D01*
X89192914Y-119690475D02*
X89240533Y-119785713D01*
X92500057Y-120555238D02*
X92452438Y-120650476D01*
X92452438Y-120650476D02*
X92357200Y-120745714D01*
X92357200Y-120745714D02*
X92214342Y-120888571D01*
X92214342Y-120888571D02*
X92166723Y-120983809D01*
X92166723Y-120983809D02*
X92166723Y-121079047D01*
X92404819Y-121031428D02*
X92357200Y-121126666D01*
X92357200Y-121126666D02*
X92261961Y-121221904D01*
X92261961Y-121221904D02*
X92071485Y-121269523D01*
X92071485Y-121269523D02*
X91738152Y-121269523D01*
X91738152Y-121269523D02*
X91547676Y-121221904D01*
X91547676Y-121221904D02*
X91452438Y-121126666D01*
X91452438Y-121126666D02*
X91404819Y-121031428D01*
X91404819Y-121031428D02*
X91404819Y-120840952D01*
X91404819Y-120840952D02*
X91452438Y-120745714D01*
X91452438Y-120745714D02*
X91547676Y-120650476D01*
X91547676Y-120650476D02*
X91738152Y-120602857D01*
X91738152Y-120602857D02*
X92071485Y-120602857D01*
X92071485Y-120602857D02*
X92261961Y-120650476D01*
X92261961Y-120650476D02*
X92357200Y-120745714D01*
X92357200Y-120745714D02*
X92404819Y-120840952D01*
X92404819Y-120840952D02*
X92404819Y-121031428D01*
X92404819Y-119650476D02*
X92404819Y-120221904D01*
X92404819Y-119936190D02*
X91404819Y-119936190D01*
X91404819Y-119936190D02*
X91547676Y-120031428D01*
X91547676Y-120031428D02*
X91642914Y-120126666D01*
X91642914Y-120126666D02*
X91690533Y-120221904D01*
X118166666Y-109337319D02*
X118166666Y-110051604D01*
X118166666Y-110051604D02*
X118119047Y-110194461D01*
X118119047Y-110194461D02*
X118023809Y-110289700D01*
X118023809Y-110289700D02*
X117880952Y-110337319D01*
X117880952Y-110337319D02*
X117785714Y-110337319D01*
X119071428Y-109670652D02*
X119071428Y-110337319D01*
X118833333Y-109289700D02*
X118595238Y-110003985D01*
X118595238Y-110003985D02*
X119214285Y-110003985D01*
X104833333Y-56359580D02*
X104785714Y-56407200D01*
X104785714Y-56407200D02*
X104642857Y-56454819D01*
X104642857Y-56454819D02*
X104547619Y-56454819D01*
X104547619Y-56454819D02*
X104404762Y-56407200D01*
X104404762Y-56407200D02*
X104309524Y-56311961D01*
X104309524Y-56311961D02*
X104261905Y-56216723D01*
X104261905Y-56216723D02*
X104214286Y-56026247D01*
X104214286Y-56026247D02*
X104214286Y-55883390D01*
X104214286Y-55883390D02*
X104261905Y-55692914D01*
X104261905Y-55692914D02*
X104309524Y-55597676D01*
X104309524Y-55597676D02*
X104404762Y-55502438D01*
X104404762Y-55502438D02*
X104547619Y-55454819D01*
X104547619Y-55454819D02*
X104642857Y-55454819D01*
X104642857Y-55454819D02*
X104785714Y-55502438D01*
X104785714Y-55502438D02*
X104833333Y-55550057D01*
X105214286Y-55550057D02*
X105261905Y-55502438D01*
X105261905Y-55502438D02*
X105357143Y-55454819D01*
X105357143Y-55454819D02*
X105595238Y-55454819D01*
X105595238Y-55454819D02*
X105690476Y-55502438D01*
X105690476Y-55502438D02*
X105738095Y-55550057D01*
X105738095Y-55550057D02*
X105785714Y-55645295D01*
X105785714Y-55645295D02*
X105785714Y-55740533D01*
X105785714Y-55740533D02*
X105738095Y-55883390D01*
X105738095Y-55883390D02*
X105166667Y-56454819D01*
X105166667Y-56454819D02*
X105785714Y-56454819D01*
%TO.C,J5*%
D11*
X122380000Y-71497500D02*
X132620000Y-71497500D01*
X122380000Y-77617500D02*
X123020000Y-77617500D01*
X122380000Y-84237500D02*
X122380000Y-71497500D01*
X123650000Y-83617500D02*
X123650000Y-79597500D01*
X124700000Y-84237500D02*
X122380000Y-84237500D01*
X126350000Y-79597500D02*
X126350000Y-83617500D01*
X126350000Y-83617500D02*
X123650000Y-83617500D01*
X126980000Y-77617500D02*
X128020000Y-77617500D01*
X128650000Y-83617500D02*
X128650000Y-79065500D01*
X131350000Y-79065500D02*
X131350000Y-83617500D01*
X131350000Y-83617500D02*
X128650000Y-83617500D01*
X131980000Y-77617500D02*
X132620000Y-77617500D01*
X132620000Y-71497500D02*
X132620000Y-84237500D01*
X132620000Y-84237500D02*
X125300000Y-84237500D01*
X123250000Y-73117500D02*
G75*
G02*
X126750000Y-73117500I1750000J-459259D01*
G01*
X126750000Y-73117500D02*
G75*
G02*
X123250000Y-73117500I-1750000J459259D01*
G01*
X128250000Y-73117500D02*
G75*
G02*
X131750000Y-73117500I1750000J-459259D01*
G01*
X131750000Y-73117500D02*
G75*
G02*
X128250000Y-73117500I-1750000J459259D01*
G01*
X125000000Y-84237500D02*
X125440000Y-84847500D01*
X124560000Y-84847500D01*
X125000000Y-84237500D01*
G36*
X125440000Y-84847500D02*
G01*
X124560000Y-84847500D01*
X125000000Y-84237500D01*
X125440000Y-84847500D01*
G37*
%TO.C,D1*%
X102730000Y-118500000D02*
X103380000Y-118500000D01*
X106780000Y-119620000D02*
X106780000Y-117380000D01*
X106900000Y-119620000D02*
X106900000Y-117380000D01*
X107020000Y-119620000D02*
X107020000Y-117380000D01*
X108270000Y-118500000D02*
X107620000Y-118500000D01*
X103380000Y-117380000D02*
X107620000Y-117380000D01*
X107620000Y-119620000D01*
X103380000Y-119620000D01*
X103380000Y-117380000D01*
%TO.C,J2*%
X114670000Y-59450000D02*
X114670000Y-105230000D01*
X114670000Y-59450000D02*
X117330000Y-59450000D01*
X114670000Y-105230000D02*
X117330000Y-105230000D01*
X116000000Y-56850000D02*
X117330000Y-56850000D01*
X117330000Y-56850000D02*
X117330000Y-58180000D01*
X117330000Y-59450000D02*
X117330000Y-105230000D01*
%TO.C,J1*%
X89270000Y-59450000D02*
X89270000Y-105230000D01*
X89270000Y-59450000D02*
X91930000Y-59450000D01*
X89270000Y-105230000D02*
X91930000Y-105230000D01*
X90600000Y-56850000D02*
X91930000Y-56850000D01*
X91930000Y-56850000D02*
X91930000Y-58180000D01*
X91930000Y-59450000D02*
X91930000Y-105230000D01*
%TO.C,C1*%
X125195225Y-89142500D02*
X125695225Y-89142500D01*
X125445225Y-88892500D02*
X125445225Y-89392500D01*
X128000000Y-88037500D02*
X128000000Y-89577500D01*
X128000000Y-91657500D02*
X128000000Y-93197500D01*
X128040000Y-88037500D02*
X128040000Y-89577500D01*
X128040000Y-91657500D02*
X128040000Y-93197500D01*
X128080000Y-88038500D02*
X128080000Y-89577500D01*
X128080000Y-91657500D02*
X128080000Y-93196500D01*
X128120000Y-88040500D02*
X128120000Y-89577500D01*
X128120000Y-91657500D02*
X128120000Y-93194500D01*
X128160000Y-88042500D02*
X128160000Y-89577500D01*
X128160000Y-91657500D02*
X128160000Y-93192500D01*
X128200000Y-88045500D02*
X128200000Y-89577500D01*
X128200000Y-91657500D02*
X128200000Y-93189500D01*
X128240000Y-88048500D02*
X128240000Y-89577500D01*
X128240000Y-91657500D02*
X128240000Y-93186500D01*
X128280000Y-88052500D02*
X128280000Y-89577500D01*
X128280000Y-91657500D02*
X128280000Y-93182500D01*
X128320000Y-88057500D02*
X128320000Y-89577500D01*
X128320000Y-91657500D02*
X128320000Y-93177500D01*
X128360000Y-88062500D02*
X128360000Y-89577500D01*
X128360000Y-91657500D02*
X128360000Y-93172500D01*
X128400000Y-88068500D02*
X128400000Y-89577500D01*
X128400000Y-91657500D02*
X128400000Y-93166500D01*
X128440000Y-88074500D02*
X128440000Y-89577500D01*
X128440000Y-91657500D02*
X128440000Y-93160500D01*
X128480000Y-88081500D02*
X128480000Y-89577500D01*
X128480000Y-91657500D02*
X128480000Y-93153500D01*
X128520000Y-88089500D02*
X128520000Y-89577500D01*
X128520000Y-91657500D02*
X128520000Y-93145500D01*
X128560000Y-88098500D02*
X128560000Y-89577500D01*
X128560000Y-91657500D02*
X128560000Y-93136500D01*
X128600000Y-88107500D02*
X128600000Y-89577500D01*
X128600000Y-91657500D02*
X128600000Y-93127500D01*
X128640000Y-88116500D02*
X128640000Y-89577500D01*
X128640000Y-91657500D02*
X128640000Y-93118500D01*
X128680000Y-88127500D02*
X128680000Y-89577500D01*
X128680000Y-91657500D02*
X128680000Y-93107500D01*
X128720000Y-88138500D02*
X128720000Y-89577500D01*
X128720000Y-91657500D02*
X128720000Y-93096500D01*
X128760000Y-88150500D02*
X128760000Y-89577500D01*
X128760000Y-91657500D02*
X128760000Y-93084500D01*
X128800000Y-88162500D02*
X128800000Y-89577500D01*
X128800000Y-91657500D02*
X128800000Y-93072500D01*
X128840000Y-88175500D02*
X128840000Y-89577500D01*
X128840000Y-91657500D02*
X128840000Y-93059500D01*
X128880000Y-88189500D02*
X128880000Y-89577500D01*
X128880000Y-91657500D02*
X128880000Y-93045500D01*
X128920000Y-88204500D02*
X128920000Y-89577500D01*
X128920000Y-91657500D02*
X128920000Y-93030500D01*
X128960000Y-88219500D02*
X128960000Y-89577500D01*
X128960000Y-91657500D02*
X128960000Y-93015500D01*
X129000000Y-88235500D02*
X129000000Y-89577500D01*
X129000000Y-91657500D02*
X129000000Y-92999500D01*
X129040000Y-88252500D02*
X129040000Y-89577500D01*
X129040000Y-91657500D02*
X129040000Y-92982500D01*
X129080000Y-88270500D02*
X129080000Y-89577500D01*
X129080000Y-91657500D02*
X129080000Y-92964500D01*
X129120000Y-88288500D02*
X129120000Y-89577500D01*
X129120000Y-91657500D02*
X129120000Y-92946500D01*
X129160000Y-88308500D02*
X129160000Y-89577500D01*
X129160000Y-91657500D02*
X129160000Y-92926500D01*
X129200000Y-88328500D02*
X129200000Y-89577500D01*
X129200000Y-91657500D02*
X129200000Y-92906500D01*
X129240000Y-88349500D02*
X129240000Y-89577500D01*
X129240000Y-91657500D02*
X129240000Y-92885500D01*
X129280000Y-88371500D02*
X129280000Y-89577500D01*
X129280000Y-91657500D02*
X129280000Y-92863500D01*
X129320000Y-88394500D02*
X129320000Y-89577500D01*
X129320000Y-91657500D02*
X129320000Y-92840500D01*
X129360000Y-88418500D02*
X129360000Y-89577500D01*
X129360000Y-91657500D02*
X129360000Y-92816500D01*
X129400000Y-88442500D02*
X129400000Y-89577500D01*
X129400000Y-91657500D02*
X129400000Y-92792500D01*
X129440000Y-88468500D02*
X129440000Y-89577500D01*
X129440000Y-91657500D02*
X129440000Y-92766500D01*
X129480000Y-88495500D02*
X129480000Y-89577500D01*
X129480000Y-91657500D02*
X129480000Y-92739500D01*
X129520000Y-88523500D02*
X129520000Y-89577500D01*
X129520000Y-91657500D02*
X129520000Y-92711500D01*
X129560000Y-88552500D02*
X129560000Y-89577500D01*
X129560000Y-91657500D02*
X129560000Y-92682500D01*
X129600000Y-88582500D02*
X129600000Y-89577500D01*
X129600000Y-91657500D02*
X129600000Y-92652500D01*
X129640000Y-88614500D02*
X129640000Y-89577500D01*
X129640000Y-91657500D02*
X129640000Y-92620500D01*
X129680000Y-88647500D02*
X129680000Y-89577500D01*
X129680000Y-91657500D02*
X129680000Y-92587500D01*
X129720000Y-88681500D02*
X129720000Y-89577500D01*
X129720000Y-91657500D02*
X129720000Y-92553500D01*
X129760000Y-88716500D02*
X129760000Y-89577500D01*
X129760000Y-91657500D02*
X129760000Y-92518500D01*
X129800000Y-88753500D02*
X129800000Y-89577500D01*
X129800000Y-91657500D02*
X129800000Y-92481500D01*
X129840000Y-88792500D02*
X129840000Y-89577500D01*
X129840000Y-91657500D02*
X129840000Y-92442500D01*
X129880000Y-88832500D02*
X129880000Y-89577500D01*
X129880000Y-91657500D02*
X129880000Y-92402500D01*
X129920000Y-88874500D02*
X129920000Y-89577500D01*
X129920000Y-91657500D02*
X129920000Y-92360500D01*
X129960000Y-88918500D02*
X129960000Y-89577500D01*
X129960000Y-91657500D02*
X129960000Y-92316500D01*
X130000000Y-88965500D02*
X130000000Y-89577500D01*
X130000000Y-91657500D02*
X130000000Y-92269500D01*
X130040000Y-89013500D02*
X130040000Y-92221500D01*
X130080000Y-89064500D02*
X130080000Y-92170500D01*
X130120000Y-89118500D02*
X130120000Y-92116500D01*
X130160000Y-89174500D02*
X130160000Y-92060500D01*
X130200000Y-89234500D02*
X130200000Y-92000500D01*
X130240000Y-89298500D02*
X130240000Y-91936500D01*
X130280000Y-89366500D02*
X130280000Y-91868500D01*
X130320000Y-89440500D02*
X130320000Y-91794500D01*
X130360000Y-89519500D02*
X130360000Y-91715500D01*
X130400000Y-89606500D02*
X130400000Y-91628500D01*
X130440000Y-89703500D02*
X130440000Y-91531500D01*
X130480000Y-89812500D02*
X130480000Y-91422500D01*
X130520000Y-89940500D02*
X130520000Y-91294500D01*
X130560000Y-90100500D02*
X130560000Y-91134500D01*
X130600000Y-90334500D02*
X130600000Y-90900500D01*
X130620000Y-90617500D02*
G75*
G02*
X125380000Y-90617500I-2620000J0D01*
G01*
X125380000Y-90617500D02*
G75*
G02*
X130620000Y-90617500I2620000J0D01*
G01*
%TO.C,R2*%
X79500000Y-114460000D02*
X79500000Y-115230000D01*
X79500000Y-122540000D02*
X79500000Y-121770000D01*
X78130000Y-115230000D02*
X80870000Y-115230000D01*
X80870000Y-121770000D01*
X78130000Y-121770000D01*
X78130000Y-115230000D01*
%TO.C,J3*%
X80120000Y-77580000D02*
X81500000Y-77580000D01*
X80120000Y-78960000D02*
X80120000Y-77580000D01*
X80120000Y-80230000D02*
X80120000Y-85420000D01*
X80120000Y-80230000D02*
X82880000Y-80230000D01*
X80120000Y-85420000D02*
X82880000Y-85420000D01*
X82880000Y-80230000D02*
X82880000Y-85420000D01*
%TO.C,R1*%
X87000000Y-114460000D02*
X87000000Y-115230000D01*
X87000000Y-122540000D02*
X87000000Y-121770000D01*
X85630000Y-115230000D02*
X88370000Y-115230000D01*
X88370000Y-121770000D01*
X85630000Y-121770000D01*
X85630000Y-115230000D01*
%TO.C,Q1*%
X93690000Y-113390000D02*
X98310000Y-113390000D01*
X93690000Y-116650000D02*
X95070000Y-116650000D01*
X93690000Y-120350000D02*
X95070000Y-120350000D01*
X93690000Y-123610000D02*
X93690000Y-113390000D01*
X95070000Y-123610000D02*
X95070000Y-113390000D01*
X98310000Y-113390000D02*
X98310000Y-123610000D01*
X98310000Y-123610000D02*
X93690000Y-123610000D01*
%TO.C,J4*%
X111380000Y-111880000D02*
X121620000Y-111880000D01*
X111380000Y-118000000D02*
X112020000Y-118000000D01*
X111380000Y-124620000D02*
X111380000Y-111880000D01*
X112650000Y-124000000D02*
X112650000Y-119980000D01*
X113700000Y-124620000D02*
X111380000Y-124620000D01*
X115350000Y-119980000D02*
X115350000Y-124000000D01*
X115350000Y-124000000D02*
X112650000Y-124000000D01*
X115980000Y-118000000D02*
X117020000Y-118000000D01*
X117650000Y-124000000D02*
X117650000Y-119448000D01*
X120350000Y-119448000D02*
X120350000Y-124000000D01*
X120350000Y-124000000D02*
X117650000Y-124000000D01*
X120980000Y-118000000D02*
X121620000Y-118000000D01*
X121620000Y-111880000D02*
X121620000Y-124620000D01*
X121620000Y-124620000D02*
X114300000Y-124620000D01*
X112250000Y-113500000D02*
G75*
G02*
X115750000Y-113500000I1750000J-459259D01*
G01*
X115750000Y-113500000D02*
G75*
G02*
X112250000Y-113500000I-1750000J459259D01*
G01*
X117250000Y-113500000D02*
G75*
G02*
X120750000Y-113500000I1750000J-459259D01*
G01*
X120750000Y-113500000D02*
G75*
G02*
X117250000Y-113500000I-1750000J459259D01*
G01*
X114000000Y-124620000D02*
X114440000Y-125230000D01*
X113560000Y-125230000D01*
X114000000Y-124620000D01*
G36*
X114440000Y-125230000D02*
G01*
X113560000Y-125230000D01*
X114000000Y-124620000D01*
X114440000Y-125230000D01*
G37*
%TO.C,C2*%
X100880000Y-52130000D02*
X106120000Y-52130000D01*
X100880000Y-52467000D02*
X100880000Y-52130000D01*
X100880000Y-54870000D02*
X100880000Y-54533000D01*
X106120000Y-52130000D02*
X106120000Y-52467000D01*
X106120000Y-54533000D02*
X106120000Y-54870000D01*
X106120000Y-54870000D02*
X100880000Y-54870000D01*
%TD*%
%LPC*%
D12*
%TO.C,J5*%
X125000000Y-77617500D03*
D13*
X130000000Y-77617500D03*
%TD*%
D14*
%TO.C,D1*%
X109310000Y-118500000D03*
D15*
X101690000Y-118500000D03*
%TD*%
D16*
%TO.C,J2*%
X116000000Y-58180000D03*
D17*
X116000000Y-60720000D03*
X116000000Y-63260000D03*
X116000000Y-65800000D03*
X116000000Y-68340000D03*
X116000000Y-70880000D03*
X116000000Y-73420000D03*
X116000000Y-75960000D03*
X116000000Y-78500000D03*
X116000000Y-81040000D03*
X116000000Y-83580000D03*
X116000000Y-86120000D03*
X116000000Y-88660000D03*
X116000000Y-91200000D03*
X116000000Y-93740000D03*
X116000000Y-96280000D03*
X116000000Y-98820000D03*
X116000000Y-101360000D03*
X116000000Y-103900000D03*
%TD*%
D16*
%TO.C,J1*%
X90600000Y-58180000D03*
D17*
X90600000Y-60720000D03*
X90600000Y-63260000D03*
X90600000Y-65800000D03*
X90600000Y-68340000D03*
X90600000Y-70880000D03*
X90600000Y-73420000D03*
X90600000Y-75960000D03*
X90600000Y-78500000D03*
X90600000Y-81040000D03*
X90600000Y-83580000D03*
X90600000Y-86120000D03*
X90600000Y-88660000D03*
X90600000Y-91200000D03*
X90600000Y-93740000D03*
X90600000Y-96280000D03*
X90600000Y-98820000D03*
X90600000Y-101360000D03*
X90600000Y-103900000D03*
%TD*%
D18*
%TO.C,C1*%
X127000000Y-90617500D03*
D15*
X129000000Y-90617500D03*
%TD*%
%TO.C,R2*%
X79500000Y-123580000D03*
X79500000Y-113420000D03*
%TD*%
D16*
%TO.C,J3*%
X81500000Y-78960000D03*
D17*
X81500000Y-81500000D03*
X81500000Y-84040000D03*
%TD*%
D15*
%TO.C,R1*%
X87000000Y-113420000D03*
X87000000Y-123580000D03*
%TD*%
D19*
%TO.C,Q1*%
X96950000Y-121040000D03*
D20*
X96950000Y-118500000D03*
X96950000Y-115960000D03*
%TD*%
D12*
%TO.C,J4*%
X114000000Y-118000000D03*
D13*
X119000000Y-118000000D03*
%TD*%
D15*
%TO.C,C2*%
X106000000Y-53500000D03*
X101000000Y-53500000D03*
%TD*%
%LPD*%
M02*
